<svg width="49" height="49" viewBox="0 0 49 49" fill="none" xmlns="http://www.w3.org/2000/svg">
<g filter="url(#filter0_d_2_440)">
<circle cx="20.7197" cy="20.6693" r="8.16835" fill="#F8C120"/>
</g>
<path d="M22.1997 19.1529L21.5607 19.378C21.5268 19.1554 21.4179 18.9545 21.234 18.7754C21.05 18.5914 20.7959 18.4995 20.4716 18.4995C20.186 18.4995 19.9488 18.5818 19.76 18.7463C19.5713 18.9109 19.4769 19.1142 19.4769 19.3562C19.4769 19.545 19.5325 19.7048 19.6439 19.8355C19.76 19.9661 19.9246 20.0557 20.1376 20.1041L20.9072 20.2711C21.3332 20.3631 21.6624 20.5373 21.8947 20.7939C22.127 21.0456 22.2432 21.3529 22.2432 21.716C22.2432 22.1323 22.0786 22.4905 21.7495 22.7906C21.4203 23.0907 20.9919 23.2407 20.4643 23.2407C19.8883 23.2407 19.4357 23.0907 19.1066 22.7906C18.7823 22.4856 18.5935 22.125 18.5402 21.7087L19.2227 21.4909C19.2518 21.8007 19.3728 22.0621 19.5858 22.2751C19.7988 22.488 20.0892 22.5945 20.4571 22.5945C20.7959 22.5945 21.0573 22.5171 21.2412 22.3622C21.4252 22.2073 21.5171 22.0113 21.5171 21.7741C21.5171 21.5805 21.4518 21.4135 21.3211 21.2731C21.1904 21.1279 20.9992 21.0286 20.7475 20.9754L20.0142 20.8157C19.6318 20.7334 19.3268 20.5712 19.0993 20.3292C18.8718 20.0872 18.7581 19.7798 18.7581 19.4071C18.7581 19.0005 18.9226 18.6447 19.2518 18.3397C19.5858 18.0299 19.9875 17.875 20.4571 17.875C20.9847 17.875 21.3889 18.0033 21.6696 18.2599C21.9504 18.5164 22.127 18.8141 22.1997 19.1529Z" fill="white"/>
<defs>
<filter id="filter0_d_2_440" x="0.551331" y="0.500977" width="48.3367" height="48.3367" filterUnits="userSpaceOnUse" color-interpolation-filters="sRGB">
<feFlood flood-opacity="0" result="BackgroundImageFix"/>
<feColorMatrix in="SourceAlpha" type="matrix" values="0 0 0 0 0 0 0 0 0 0 0 0 0 0 0 0 0 0 127 0" result="hardAlpha"/>
<feOffset dx="4" dy="4"/>
<feGaussianBlur stdDeviation="8"/>
<feColorMatrix type="matrix" values="0 0 0 0 0 0 0 0 0 0 0 0 0 0 0 0 0 0 0.1 0"/>
<feBlend mode="normal" in2="BackgroundImageFix" result="effect1_dropShadow_2_440"/>
<feBlend mode="normal" in="SourceGraphic" in2="effect1_dropShadow_2_440" result="shape"/>
</filter>
</defs>
</svg>
